# xmcd
#
# Track frame offsets: 
#        150
#        15345
#        33843
#        58748
#        72699
#        80688
#        94443
#        102828
#        120788
#        130258
#        140391
#        159940
#
# Disc length: 2453 seconds
#
# Revision: 0
# Processed by: cddbd v1.5.2PL0 Copyright (c) Steve Scherf et al.
# Submitted via: ExactAudioCopyFreeDBPlugin 1.0
#
DISCID=9809930c
DTITLE=Little G Weevil - Moving
DYEAR=2013
DGENRE=Blues
TTITLE0=Shook It And Broke It
TTITLE1=On My Way To Memphis
TTITLE2=Mean And Dirty
TTITLE3=Boogie Through My Troubles
TTITLE4=Let Someone Else Do All The Work
TTITLE5=Deep Bow
TTITLE6=Advice
TTITLE7=Moving
TTITLE8=No Man In My Bed
TTITLE9=Fastest Man
TTITLE10=Let's Talk It Over (Come Back Baby)
TTITLE11=Swing In The Middle
EXTD=
EXTT0=
EXTT1=
EXTT2=
EXTT3=
EXTT4=
EXTT5=
EXTT6=
EXTT7=
EXTT8=
EXTT9=
EXTT10=
EXTT11=
PLAYORDER=
